<svg width="567" height="23" viewBox="0 0 567 23" fill="none" xmlns="http://www.w3.org/2000/svg">
<path d="M21.5 12.5459C22.3284 12.5459 23 11.8743 23 11.0459C23 10.2175 22.3284 9.5459 21.5 9.5459L21.5 12.5459ZM0.439341 9.98524C-0.146446 10.571 -0.146446 11.5208 0.43934 12.1066L9.98528 21.6525C10.5711 22.2383 11.5208 22.2383 12.1066 21.6525C12.6924 21.0667 12.6924 20.117 12.1066 19.5312L3.62132 11.0459L12.1066 2.56062C12.6924 1.97483 12.6924 1.02508 12.1066 0.439296C11.5208 -0.146491 10.5711 -0.146491 9.98528 0.439296L0.439341 9.98524ZM21.5 9.5459L1.5 9.5459L1.5 12.5459L21.5 12.5459L21.5 9.5459Z" fill="white" fill-opacity="0.3"/>
<path d="M217.51 6.1053L224.5 4.0459L222.46 11.0558L224.5 18.0459L217.51 16.0063L210.5 18.0459L212.559 11.0558L210.5 4.0459L217.51 6.1053Z" fill="#B9FF66"/>
<path d="M250.51 6.1053L257.5 4.0459L255.46 11.0558L257.5 18.0459L250.51 16.0063L243.5 18.0459L245.559 11.0558L243.5 4.0459L250.51 6.1053Z" fill="white"/>
<path d="M283.51 6.1053L290.5 4.0459L288.46 11.0558L290.5 18.0459L283.51 16.0063L276.5 18.0459L278.559 11.0558L276.5 4.0459L283.51 6.1053Z" fill="white"/>
<path d="M316.51 6.1053L323.5 4.0459L321.46 11.0558L323.5 18.0459L316.51 16.0063L309.5 18.0459L311.559 11.0558L309.5 4.0459L316.51 6.1053Z" fill="white"/>
<path d="M349.51 6.1053L356.5 4.0459L354.46 11.0558L356.5 18.0459L349.51 16.0063L342.5 18.0459L344.559 11.0558L342.5 4.0459L349.51 6.1053Z" fill="white"/>
<path d="M545.5 9.5459C544.672 9.5459 544 10.2175 544 11.0459C544 11.8743 544.672 12.5459 545.5 12.5459L545.5 9.5459ZM566.561 12.1066C567.146 11.5208 567.146 10.571 566.561 9.98524L557.015 0.439299C556.429 -0.146488 555.479 -0.146488 554.893 0.439298C554.308 1.02509 554.308 1.97483 554.893 2.56062L563.379 11.0459L554.893 19.5312C554.308 20.117 554.308 21.0667 554.893 21.6525C555.479 22.2383 556.429 22.2383 557.015 21.6525L566.561 12.1066ZM545.5 12.5459L565.5 12.5459L565.5 9.5459L545.5 9.5459L545.5 12.5459Z" fill="white"/>
</svg>
