<svg width="171" height="29" viewBox="0 0 171 29" fill="none" xmlns="http://www.w3.org/2000/svg">
<path d="M0 28.0628V0H11.145C12.8554 0 14.3789 0.347445 15.7152 1.04233C17.0782 1.7105 18.1339 2.67265 18.8823 3.9288C19.6573 5.15821 20.0449 6.64153 20.0449 8.37876V8.89993C20.0449 10.6371 19.644 12.1338 18.8422 13.39C18.0671 14.6461 17.0114 15.6083 15.6751 16.2764C14.3388 16.9446 12.8287 17.2787 11.145 17.2787H4.32969V28.0628H0ZM4.32969 13.3499H10.704C12.2274 13.3499 13.4434 12.949 14.3521 12.1472C15.2608 11.3454 15.7152 10.2496 15.7152 8.85983V8.45894C15.7152 7.04243 15.2608 5.93328 14.3521 5.13149C13.4434 4.32969 12.2274 3.9288 10.704 3.9288H4.32969V13.3499Z" fill="black"/>
<path d="M32.9885 28.6241C31.0108 28.6241 29.2468 28.2232 27.6967 27.4214C26.1733 26.5929 24.9706 25.4169 24.0886 23.8935C23.2066 22.3701 22.7657 20.566 22.7657 18.4814V17.88C22.7657 15.7954 23.2066 14.0047 24.0886 12.508C24.9706 10.9846 26.1733 9.80863 27.6967 8.9801C29.2468 8.15158 31.0108 7.73732 32.9885 7.73732C34.9663 7.73732 36.7302 8.15158 38.2804 8.9801C39.8305 9.80863 41.0466 10.9846 41.9286 12.508C42.8105 14.0047 43.2515 15.7954 43.2515 17.88V18.4814C43.2515 20.566 42.8105 22.3701 41.9286 23.8935C41.0466 25.4169 39.8305 26.5929 38.2804 27.4214C36.7302 28.2232 34.9663 28.6241 32.9885 28.6241ZM32.9885 24.9358C34.8059 24.9358 36.2759 24.3612 37.3984 23.212C38.5476 22.036 39.1223 20.419 39.1223 18.3611V18.0003C39.1223 15.9424 38.561 14.3388 37.4385 13.1895C36.316 12.0136 34.8327 11.4256 32.9885 11.4256C31.1979 11.4256 29.7279 12.0136 28.5787 13.1895C27.4562 14.3388 26.8949 15.9424 26.8949 18.0003V18.3611C26.8949 20.419 27.4562 22.036 28.5787 23.212C29.7279 24.3612 31.1979 24.9358 32.9885 24.9358Z" fill="black"/>
<path d="M56.4905 28.6241C53.9782 28.6241 51.8936 28.0628 50.2365 26.9403C48.5795 25.8178 47.5639 24.1207 47.1897 21.8489L51.0383 20.9268C51.2521 22.0226 51.6129 22.8912 52.1207 23.5327C52.6285 24.1741 53.2566 24.6285 54.005 24.8957C54.78 25.163 55.6086 25.2966 56.4905 25.2966C57.8001 25.2966 58.8024 25.0427 59.4973 24.5349C60.2189 24.0271 60.5797 23.3723 60.5797 22.5705C60.5797 21.7687 60.2456 21.1808 59.5774 20.8066C58.9093 20.4324 57.9204 20.1251 56.6108 19.8845L55.2477 19.644C53.9114 19.4034 52.6954 19.056 51.5996 18.6016C50.5038 18.1473 49.6352 17.5192 48.9937 16.7174C48.3523 15.9156 48.0316 14.8867 48.0316 13.6305C48.0316 11.7597 48.7265 10.3164 50.1163 9.30082C51.506 8.25849 53.3502 7.73732 55.6486 7.73732C57.8669 7.73732 59.6843 8.24513 61.1008 9.26073C62.5441 10.2496 63.4795 11.5993 63.9071 13.3098L60.0585 14.3922C59.818 13.1895 59.3102 12.3476 58.5351 11.8666C57.76 11.3588 56.7979 11.1049 55.6486 11.1049C54.5261 11.1049 53.6442 11.3187 53.0027 11.7463C52.3613 12.1472 52.0406 12.7218 52.0406 13.4702C52.0406 14.272 52.3479 14.8599 52.9626 15.2341C53.6041 15.6083 54.4593 15.8889 55.5284 16.076L56.9315 16.3165C58.348 16.5571 59.6443 16.8911 60.8202 17.3188C61.9962 17.7464 62.9182 18.3611 63.5864 19.1629C64.2813 19.9647 64.6287 21.0338 64.6287 22.3701C64.6287 24.3478 63.8938 25.8846 62.4238 26.9804C60.9538 28.0762 58.9761 28.6241 56.4905 28.6241Z" fill="black"/>
<path d="M69.4552 28.0628V8.29858H73.5844V28.0628H69.4552ZM71.5398 5.61257C70.738 5.61257 70.0565 5.35866 69.4953 4.85086C68.9607 4.31633 68.6935 3.6348 68.6935 2.80628C68.6935 1.97776 68.9607 1.3096 69.4953 0.801796C70.0565 0.267265 70.738 0 71.5398 0C72.3684 0 73.0499 0.267265 73.5844 0.801796C74.119 1.3096 74.3862 1.97776 74.3862 2.80628C74.3862 3.6348 74.119 4.31633 73.5844 4.85086C73.0499 5.35866 72.3684 5.61257 71.5398 5.61257Z" fill="black"/>
<path d="M87.1291 28.0628C85.9264 28.0628 84.9643 27.702 84.2427 26.9804C83.5478 26.2588 83.2003 25.2966 83.2003 24.0939V11.7864H77.7481V8.29858H83.2003V1.76395H87.3296V8.29858H93.2228V11.7864H87.3296V23.3723C87.3296 24.1741 87.7037 24.575 88.4521 24.575H92.5813V28.0628H87.1291Z" fill="black"/>
<path d="M98.0739 28.0628V8.29858H102.203V28.0628H98.0739ZM100.159 5.61257C99.3568 5.61257 98.6753 5.35866 98.114 4.85086C97.5795 4.31633 97.3122 3.6348 97.3122 2.80628C97.3122 1.97776 97.5795 1.3096 98.114 0.801796C98.6753 0.267265 99.3568 0 100.159 0C100.987 0 101.669 0.267265 102.203 0.801796C102.738 1.3096 103.005 1.97776 103.005 2.80628C103.005 3.6348 102.738 4.31633 102.203 4.85086C101.669 5.35866 100.987 5.61257 100.159 5.61257Z" fill="black"/>
<path d="M112.901 28.0628L106.247 8.29858H110.616L115.868 25.016H116.51L121.761 8.29858H126.131L119.476 28.0628H112.901Z" fill="black"/>
<path d="M137.715 28.4236C136.218 28.4236 134.882 28.0896 133.706 27.4214C132.53 26.7532 131.608 25.8044 130.94 24.575C130.272 23.3456 129.937 21.8756 129.937 20.1651V8.29858H134.067V19.8845C134.067 21.595 134.494 22.8645 135.35 23.693C136.205 24.4948 137.394 24.8957 138.918 24.8957C140.601 24.8957 141.951 24.3345 142.967 23.212C144.009 22.0627 144.53 20.419 144.53 18.2809V8.29858H148.659V28.0628H144.61V25.0962H143.969C143.595 25.898 142.927 26.6597 141.964 27.3813C141.002 28.0762 139.586 28.4236 137.715 28.4236Z" fill="black"/>
<path d="M162.861 28.6241C160.349 28.6241 158.265 28.0628 156.607 26.9403C154.95 25.8178 153.935 24.1207 153.561 21.8489L157.409 20.9268C157.623 22.0226 157.984 22.8912 158.492 23.5327C158.999 24.1741 159.628 24.6285 160.376 24.8957C161.151 25.163 161.979 25.2966 162.861 25.2966C164.171 25.2966 165.173 25.0427 165.868 24.5349C166.59 24.0271 166.951 23.3723 166.951 22.5705C166.951 21.7687 166.617 21.1808 165.948 20.8066C165.28 20.4324 164.291 20.1251 162.982 19.8845L161.619 19.644C160.282 19.4034 159.066 19.056 157.971 18.6016C156.875 18.1473 156.006 17.5192 155.365 16.7174C154.723 15.9156 154.403 14.8867 154.403 13.6305C154.403 11.7597 155.097 10.3164 156.487 9.30082C157.877 8.25849 159.721 7.73732 162.02 7.73732C164.238 7.73732 166.055 8.24513 167.472 9.26073C168.915 10.2496 169.85 11.5993 170.278 13.3098L166.429 14.3922C166.189 13.1895 165.681 12.3476 164.906 11.8666C164.131 11.3588 163.169 11.1049 162.02 11.1049C160.897 11.1049 160.015 11.3187 159.374 11.7463C158.732 12.1472 158.412 12.7218 158.412 13.4702C158.412 14.272 158.719 14.8599 159.334 15.2341C159.975 15.6083 160.83 15.8889 161.899 16.076L163.302 16.3165C164.719 16.5571 166.015 16.8911 167.191 17.3188C168.367 17.7464 169.289 18.3611 169.957 19.1629C170.652 19.9647 171 21.0338 171 22.3701C171 24.3478 170.265 25.8846 168.795 26.9804C167.325 28.0762 165.347 28.6241 162.861 28.6241Z" fill="black"/>
</svg>
