<svg width="140" height="24" viewBox="0 0 140 24" fill="none" xmlns="http://www.w3.org/2000/svg">
<path d="M0 22.5732V0H9.12451C10.5249 0 11.7721 0.279478 12.8662 0.838434C13.9822 1.37589 14.8465 2.14983 15.4591 3.16025C16.0937 4.14917 16.411 5.34232 16.411 6.73971V7.15893C16.411 8.55632 16.0828 9.76022 15.4263 10.7706C14.7918 11.7811 13.9275 12.555 12.8334 13.0925C11.7393 13.6299 10.503 13.8986 9.12451 13.8986H3.54477V22.5732H0ZM3.54477 10.7384H8.76347C10.0107 10.7384 11.0063 10.4159 11.7503 9.77097C12.4942 9.12602 12.8662 8.24459 12.8662 7.12668V6.80421C12.8662 5.6648 12.4942 4.77262 11.7503 4.12767C11.0063 3.48272 10.0107 3.16025 8.76347 3.16025H3.54477V10.7384Z" fill="white"/>
<path d="M27.0081 23.0247C25.3889 23.0247 23.9447 22.7022 22.6756 22.0572C21.4284 21.3908 20.4437 20.4449 19.7216 19.2195C18.9996 17.9941 18.6385 16.5429 18.6385 14.8661V14.3823C18.6385 12.7055 18.9996 11.2651 19.7216 10.0612C20.4437 8.83579 21.4284 7.88987 22.6756 7.22342C23.9447 6.55698 25.3889 6.22375 27.0081 6.22375C28.6273 6.22375 30.0715 6.55698 31.3406 7.22342C32.6097 7.88987 33.6053 8.83579 34.3274 10.0612C35.0495 11.2651 35.4105 12.7055 35.4105 14.3823V14.8661C35.4105 16.5429 35.0495 17.9941 34.3274 19.2195C33.6053 20.4449 32.6097 21.3908 31.3406 22.0572C30.0715 22.7022 28.6273 23.0247 27.0081 23.0247ZM27.0081 20.0579C28.496 20.0579 29.6995 19.5957 30.6185 18.6713C31.5594 17.7253 32.0299 16.4247 32.0299 14.7693V14.4791C32.0299 12.8237 31.5704 11.5338 30.6514 10.6094C29.7323 9.66348 28.5179 9.19052 27.0081 9.19052C25.5421 9.19052 24.3386 9.66348 23.3977 10.6094C22.4787 11.5338 22.0192 12.8237 22.0192 14.4791V14.7693C22.0192 16.4247 22.4787 17.7253 23.3977 18.6713C24.3386 19.5957 25.5421 20.0579 27.0081 20.0579Z" fill="white"/>
<path d="M46.2495 23.0247C44.1926 23.0247 42.4859 22.5732 41.1293 21.6703C39.7726 20.7673 38.9411 19.4022 38.6348 17.5748L41.7857 16.8332C41.9607 17.7146 42.2561 18.4133 42.6719 18.9292C43.0876 19.4452 43.6018 19.8107 44.2145 20.0256C44.8491 20.2406 45.5274 20.3481 46.2495 20.3481C47.3217 20.3481 48.1422 20.1439 48.7111 19.7354C49.3019 19.327 49.5973 18.8002 49.5973 18.1553C49.5973 17.5103 49.3238 17.0374 48.7768 16.7364C48.2297 16.4354 47.4201 16.1882 46.348 15.9947L45.232 15.8012C44.1379 15.6078 43.1423 15.3283 42.2452 14.9628C41.3481 14.5973 40.6369 14.0921 40.1118 13.4472C39.5866 12.8022 39.324 11.9745 39.324 10.9641C39.324 9.45924 39.893 8.29834 41.0308 7.4814C42.1686 6.64297 43.6784 6.22375 45.5602 6.22375C47.3764 6.22375 48.8643 6.63222 50.024 7.44915C51.2056 8.24459 51.9714 9.33025 52.3216 10.7061L49.1706 11.5768C48.9737 10.6094 48.558 9.93221 47.9234 9.54524C47.2888 9.13677 46.5011 8.93254 45.5602 8.93254C44.6412 8.93254 43.9191 9.10452 43.394 9.44849C42.8688 9.77097 42.6062 10.2332 42.6062 10.8351C42.6062 11.4801 42.8579 11.953 43.3612 12.254C43.8863 12.555 44.5865 12.7807 45.4618 12.9312L46.6105 13.1247C47.7702 13.3182 48.8315 13.5869 49.7943 13.9309C50.757 14.2749 51.5119 14.7693 52.059 15.4143C52.6279 16.0592 52.9123 16.9191 52.9123 17.9941C52.9123 19.5849 52.3106 20.8211 51.1071 21.7025C49.9037 22.5839 48.2844 23.0247 46.2495 23.0247Z" fill="white"/>
<path d="M56.8638 22.5732V6.67522H60.2445V22.5732H56.8638ZM58.5705 4.51464C57.9141 4.51464 57.3561 4.31041 56.8966 3.90194C56.459 3.47197 56.2402 2.92377 56.2402 2.25732C56.2402 1.59087 56.459 1.05342 56.8966 0.644949C57.3561 0.214983 57.9141 0 58.5705 0C59.2489 0 59.8068 0.214983 60.2445 0.644949C60.6821 1.05342 60.9009 1.59087 60.9009 2.25732C60.9009 2.92377 60.6821 3.47197 60.2445 3.90194C59.8068 4.31041 59.2489 4.51464 58.5705 4.51464Z" fill="white"/>
<path d="M71.3337 22.5732C70.349 22.5732 69.5613 22.283 68.9705 21.7025C68.4016 21.1221 68.1171 20.3481 68.1171 19.3807V9.48074H63.6533V6.67522H68.1171V1.41889H71.4978V6.67522H76.3226V9.48074H71.4978V18.8002C71.4978 19.4452 71.8041 19.7677 72.4168 19.7677H75.7975V22.5732H71.3337Z" fill="white"/>
<path d="M80.2943 22.5732V6.67522H83.675V22.5732H80.2943ZM82.0011 4.51464C81.3446 4.51464 80.7867 4.31041 80.3272 3.90194C79.8895 3.47197 79.6707 2.92377 79.6707 2.25732C79.6707 1.59087 79.8895 1.05342 80.3272 0.644949C80.7867 0.214983 81.3446 0 82.0011 0C82.6794 0 83.2374 0.214983 83.675 0.644949C84.1126 1.05342 84.3314 1.59087 84.3314 2.25732C84.3314 2.92377 84.1126 3.47197 83.675 3.90194C83.2374 4.31041 82.6794 4.51464 82.0011 4.51464Z" fill="white"/>
<path d="M92.4338 22.5732L86.9854 6.67522H90.563L94.8627 20.1224H95.3878L99.6875 6.67522H103.265L97.8166 22.5732H92.4338Z" fill="white"/>
<path d="M112.749 22.8634C111.523 22.8634 110.429 22.5947 109.467 22.0572C108.504 21.5198 107.749 20.7566 107.202 19.7677C106.655 18.7787 106.381 17.5963 106.381 16.2205V6.67522H109.762V15.9947C109.762 17.3706 110.112 18.3918 110.812 19.0582C111.513 19.7032 112.486 20.0256 113.734 20.0256C115.112 20.0256 116.217 19.5742 117.049 18.6713C117.902 17.7468 118.329 16.4247 118.329 14.7048V6.67522H121.709V22.5732H118.394V20.1869H117.869C117.563 20.8318 117.016 21.4445 116.228 22.025C115.44 22.5839 114.281 22.8634 112.749 22.8634Z" fill="white"/>
<path d="M133.337 23.0247C131.28 23.0247 129.573 22.5732 128.216 21.6703C126.86 20.7673 126.028 19.4022 125.722 17.5748L128.873 16.8332C129.048 17.7146 129.343 18.4133 129.759 18.9292C130.175 19.4452 130.689 19.8107 131.302 20.0256C131.936 20.2406 132.615 20.3481 133.337 20.3481C134.409 20.3481 135.229 20.1439 135.798 19.7354C136.389 19.327 136.685 18.8002 136.685 18.1553C136.685 17.5103 136.411 17.0374 135.864 16.7364C135.317 16.4354 134.507 16.1882 133.435 15.9947L132.319 15.8012C131.225 15.6078 130.23 15.3283 129.332 14.9628C128.435 14.5973 127.724 14.0921 127.199 13.4472C126.674 12.8022 126.411 11.9745 126.411 10.9641C126.411 9.45924 126.98 8.29834 128.118 7.4814C129.256 6.64297 130.766 6.22375 132.647 6.22375C134.464 6.22375 135.952 6.63222 137.111 7.44915C138.293 8.24459 139.059 9.33025 139.409 10.7061L136.258 11.5768C136.061 10.6094 135.645 9.93221 135.011 9.54524C134.376 9.13677 133.588 8.93254 132.647 8.93254C131.728 8.93254 131.006 9.10452 130.481 9.44849C129.956 9.77097 129.693 10.2332 129.693 10.8351C129.693 11.4801 129.945 11.953 130.448 12.254C130.974 12.555 131.674 12.7807 132.549 12.9312L133.698 13.1247C134.857 13.3182 135.919 13.5869 136.881 13.9309C137.844 14.2749 138.599 14.7693 139.146 15.4143C139.715 16.0592 140 16.9191 140 17.9941C140 19.5849 139.398 20.8211 138.194 21.7025C136.991 22.5839 135.372 23.0247 133.337 23.0247Z" fill="white"/>
</svg>
