<svg width="111" height="22" viewBox="0 0 111 22" fill="none" xmlns="http://www.w3.org/2000/svg">
<path fill-rule="evenodd" clip-rule="evenodd" d="M89.9336 6.59723C90.3558 7.24286 90.4939 7.97743 90.5396 8.80324L90.5995 9.90393V17.6007L90.6607 18.7025C90.7832 20.502 92.2806 21.8325 94.3265 21.9457L95.5632 22V9.90393L95.6245 8.80324C95.6753 7.98667 95.8121 7.23824 96.2409 6.58799C96.6777 5.92103 97.3049 5.36767 98.0594 4.98348C98.8139 4.59928 99.6691 4.39777 100.539 4.39918C101.409 4.40058 102.264 4.60485 103.017 4.99148C103.77 5.37811 104.395 5.93348 104.829 6.60185C105.251 7.24748 105.383 7.99591 105.433 8.80324L105.495 9.90046V17.6007L105.556 18.7025C105.684 20.5112 107.169 21.8418 109.222 21.9457L110.458 22V8.80324C110.458 6.46969 109.413 4.23166 107.551 2.58127C105.69 0.930875 103.165 0.00323181 100.532 0.00231305C99.1229 0.000995875 97.7296 0.266231 96.4453 0.780298C95.161 1.29437 94.0153 2.04543 93.0846 2.98331C92.1536 2.0458 91.0078 1.29492 89.7236 0.780697C88.4394 0.266477 87.0462 0.000728203 85.6371 0.00115785C83.5755 0.00115785 81.6624 0.555547 80.0778 1.51302C79.1108 0.556701 76.9476 0.00115785 75.7057 0.00115785V22L76.9476 21.9457C79.0248 21.8244 80.5261 20.5297 80.6069 18.7025L80.6733 17.6007V9.90393L80.7346 8.80324C80.7867 7.97281 80.917 7.24286 81.3406 6.59261C81.7778 5.92606 82.4047 5.37284 83.1586 4.98817C83.9125 4.60351 84.7671 4.40086 85.6371 4.40046C86.5077 4.40063 87.3629 4.60368 88.117 4.98925C88.8711 5.37482 89.4976 5.92935 89.9336 6.59723ZM4.96373 21.9469L6.20564 22H24.8213L24.76 20.9028C24.5919 19.0941 23.1467 17.7728 21.0994 17.655L19.8575 17.6007H8.68946L23.5794 4.39931L23.5181 3.30324C23.4217 1.47606 21.9152 0.155925 19.8575 0.0554414L18.6156 0.00577766L0 0.00115785L0.0612485 1.10185C0.224143 2.89322 1.6902 4.24223 3.72052 4.34618L4.96373 4.40046H16.1318L1.24191 17.6018L1.30316 18.7025C1.42566 20.5159 2.90213 21.8291 4.96373 21.9457V21.9469ZM70.8332 3.22123C71.9858 4.2426 72.9002 5.45521 73.524 6.7898C74.1478 8.1244 74.4689 9.55484 74.4689 10.9994C74.4689 12.444 74.1478 13.8744 73.524 15.209C72.9002 16.5436 71.9858 17.7562 70.8332 18.7776C68.5044 20.8399 65.3471 21.9983 62.0551 21.9983C58.7631 21.9983 55.6058 20.8399 53.277 18.7776C48.4306 14.4823 48.4306 7.51659 53.277 3.22123C54.4286 2.20021 55.7959 1.39022 57.3007 0.837517C58.8055 0.284816 60.4184 0.000228005 62.0473 2.65159e-06C63.6788 -0.00100129 65.2946 0.283085 66.8022 0.836013C68.3098 1.38894 69.6795 2.19986 70.8332 3.22239V3.22123ZM67.3212 6.33621C68.7171 7.57436 69.5013 9.25311 69.5013 11.0035C69.5013 12.7538 68.7171 14.4326 67.3212 15.6707C65.9242 16.908 64.03 17.6029 62.0551 17.6029C60.0802 17.6029 58.1861 16.908 56.789 15.6707C55.3931 14.4326 54.6089 12.7538 54.6089 11.0035C54.6089 9.25311 55.3931 7.57436 56.789 6.33621C58.1861 5.09898 60.0802 4.404 62.0551 4.404C64.03 4.404 65.9242 5.09898 67.3212 6.33621ZM35.9998 2.65159e-06C37.6288 0.000379687 39.2417 0.28515 40.7465 0.83805C42.2513 1.39095 43.6185 2.20115 44.77 3.22239C49.6178 7.51659 49.6178 14.4834 44.77 18.7776C42.4413 20.8399 39.2839 21.9983 35.9919 21.9983C32.6999 21.9983 29.5426 20.8399 27.2139 18.7776C22.3674 14.4823 22.3674 7.51659 27.2139 3.22123C28.3655 2.20021 29.7327 1.39022 31.2375 0.837517C32.7423 0.284816 34.3552 0.000228005 35.9841 2.65159e-06H35.9998ZM41.258 6.3339C42.6544 7.5721 43.4388 9.25109 43.4388 11.0017C43.4388 12.7524 42.6544 14.4314 41.258 15.6696C39.861 16.9068 37.9669 17.6018 35.9919 17.6018C34.017 17.6018 32.1229 16.9068 30.7259 15.6696C29.3299 14.4314 28.5458 12.7527 28.5458 11.0023C28.5458 9.25195 29.3299 7.57321 30.7259 6.33505C32.1229 5.09783 34.017 4.40284 35.9919 4.40284C37.9669 4.40284 39.861 5.09783 41.258 6.33505V6.3339Z" fill="#2D8CFF"/>
</svg>
