<svg width="126" height="30" viewBox="0 0 126 30" fill="none" xmlns="http://www.w3.org/2000/svg">
<path d="M17.2219 28.0663C15.3378 28.3595 13.4206 28.4474 11.4373 28.6816L5.38798 12.9786V29.3555C3.50388 29.5313 1.78503 29.7656 0 30V0H5.02459L11.9 17.0217V0H17.2219V28.0663ZM27.6345 10.9863C29.6841 10.9863 32.8243 10.8984 34.7084 10.8984V15.5858C32.3614 15.5858 29.6179 15.5858 27.6345 15.6737V22.6465C30.7419 22.4708 33.8491 22.2362 36.9892 22.1483V26.6597L22.3455 27.6854V0H36.9892V4.68751H27.6345V10.9863ZM56.6573 4.68762H51.1701V26.2501C49.3851 26.2501 47.6 26.2501 45.8814 26.3085V4.68762H40.3943V0H56.6575L56.6573 4.68762ZM65.2517 10.6642H72.491V15.3516H65.2517V25.9864H60.0616V0H74.8379V4.68751H65.2517V10.6642ZM83.4323 21.8848C86.4404 21.9432 89.4814 22.1486 92.4235 22.2948V26.9238C87.6966 26.66 82.9696 26.3966 78.1435 26.3085V0H83.4323V21.8848ZM96.8859 27.2461C98.5717 27.3341 100.357 27.422 102.076 27.5975V0H96.8859V27.2461ZM125.248 0L118.537 14.2676L125.248 30C123.264 29.7656 121.281 29.4433 119.298 29.1503L115.496 20.4786L111.629 28.4474C109.712 28.1542 107.86 28.0663 105.944 27.8319L112.753 14.0917L106.604 0H112.29L115.761 7.88088L119.463 0H125.248V0Z" fill="#D81F26"/>
</svg>
