<svg width="126" height="28" viewBox="0 0 126 28" fill="none" xmlns="http://www.w3.org/2000/svg">
<path fill-rule="evenodd" clip-rule="evenodd" d="M125.805 21.5367C120.539 29.4485 112.201 27.1528 109.696 25.3553C108.63 25.9962 106.762 27.4011 104.269 27.2389C98.962 26.8936 97.0614 20.1715 97.0614 20.1715C97.0995 20.1984 95.4804 20.6666 94.6054 20.6583C94.5941 22.6296 92.6714 27.3386 87.4825 27.2784C81.6598 27.2111 80.4761 19.5227 80.4761 19.5227C80.4761 19.5227 79.8967 20.2358 77.6935 20.9461C77.8044 19.4316 77.7233 27.0479 70.7446 27.1598C65.2274 27.2484 63.7381 19.4042 63.7381 19.4042C63.7381 19.4042 62.781 20.2853 60.9262 20.591C61.0441 19.0518 60.8524 27.1857 53.8728 27.1598C49.1561 27.1425 47.5443 22.3278 47.6697 21.6595C47.8296 20.8079 46.0756 27.2796 41.494 27.1788C39.6033 27.1296 38.1938 25.9163 37.3093 24.2988C36.1252 25.4996 34.4062 27.1788 32.4777 27.1788C29.016 27.1788 27.4899 24.6127 27.7484 17.2834C27.7704 16.4141 27.6996 16.0722 26.7246 15.9422C26.1394 15.8556 25.5401 15.6918 24.9059 15.6054C24.7027 16.2065 22.9788 26.9832 17.051 27.1877C15.0623 27.2564 13.9749 25.7295 13.0819 24.5963C11.713 26.2013 9.90595 27.2389 7.33166 27.2389C2.97103 27.2389 0 24.1145 0 20.2605C0 16.4063 2.97103 13.2823 7.33166 13.2823C8.10267 13.2823 8.31911 13.3803 9.02346 13.5624C7.57493 1.87351 10.9958 0.0467065 13.9883 0.0467065C16.8613 0.0467065 21.7695 5.95662 14.8632 20.9473C16.3966 25.4186 19.7021 25.1657 21.2905 15.9613C21.6138 14.0903 20.7494 11.5655 22.094 11.2131C24.5518 10.5691 24.8126 12.5013 25.965 12.8232C27.1835 13.1635 27.8948 13.1302 29.0646 13.3468C31.0635 13.6927 31.8435 14.6444 31.6 16.7641C31.3075 19.4462 30.7959 23.3499 32.3558 23.8257C33.4807 24.1713 35.5345 22.1037 35.8949 20.9724C36.2552 19.8411 36.3305 19.454 36.3625 18.6242C36.4112 16.8508 36.4724 15.5509 36.8136 14.2097C36.9596 13.6907 37.1261 13.347 37.7886 13.3235C38.3337 13.3112 39.3306 13.1658 39.7694 13.4685C40.3543 13.858 40.2812 14.2532 40.2141 15.2934C39.5339 30.1244 44.7695 22.7207 46.3306 16.7925C45.7747 10.0891 46.1563 0.169457 50.8959 0.00308735C53.3609 -0.0834345 54.4506 1.66673 54.5705 2.97306C54.9095 6.66264 53.0104 12.7744 50.5128 16.8845C49.0853 25.2709 56.7539 26.9291 57.9803 20.2351C55.9739 19.3896 53.8055 15.9674 55.57 14.2997C56.5601 13.3637 60.6815 14.7083 60.749 17.6409C62.7706 17.1617 63.0405 16.1501 63.0685 16.3177C62.5128 9.61431 63.0282 0.169544 67.7682 0.003173C70.2328 -0.0833488 71.3224 1.66682 71.4422 2.97315C71.7813 6.66272 69.8821 12.7744 67.3849 16.8846C65.9572 25.2709 73.626 26.9293 74.852 20.2352C73.3665 19.9812 70.2308 16.3412 72.0401 14.2998C73.0069 13.2089 77.1132 15.4775 77.573 17.738C79.515 17.2509 79.7788 16.2714 79.8066 16.4363C79.2507 9.73311 79.7662 0.288343 84.5061 0.121973C86.9707 0.0354508 88.0603 1.78562 88.1802 3.09195C88.5192 6.78151 86.6201 12.8934 84.1225 17.0035C82.6952 25.39 90.3638 27.0479 91.5901 20.3538C89.5488 20.0526 86.6476 16.2093 88.9826 14.2432C89.9155 13.4576 93.4801 15.4968 94.3146 17.8233C95.4739 17.7837 96.1956 17.4293 96.3503 17.3936C94.4994 9.52421 95.8773 0.082106 100.976 0.00328837C103.732 -0.0392709 106.426 1.32377 105.244 8.81044C104.115 15.9536 100.057 18.9513 100.067 18.9971C100.303 19.8529 102.385 27.0146 107.628 23.2359C107.357 22.6912 107.085 22.1347 106.933 21.4605C106.064 17.5336 107.771 13.0982 112.411 12.3813C115.069 11.9706 117.573 13.1176 117.969 15.7035C118.62 19.9349 114.309 22.9993 112.67 23.664C111.936 23.2943 119.326 27.495 123.712 19.0768C123.966 18.5961 124.272 18.6368 124.67 18.8846C124.95 19.0596 126.548 20.4011 125.805 21.5367ZM10.5036 19.2208C10.2805 18.6295 9.82252 17.3266 9.66058 16.7621C8.7687 16.0747 8.1321 15.963 6.98729 15.963C4.44316 15.963 2.94573 18.0478 2.94573 20.2958C2.94573 22.5436 4.57707 24.6287 7.12121 24.6287C9.326 24.6287 11.004 23.3001 11.516 21.4193C11.1577 20.686 10.8022 20.0122 10.5036 19.2208ZM13.926 3.14084C12.1383 3.14084 11.5319 6.92037 11.6496 10.1447C11.7537 12.9953 12.6525 15.505 13.1187 16.6295C13.2371 16.7704 13.2151 16.6788 13.3208 16.8282C16.4247 10.8007 15.1373 3.14084 13.926 3.14084ZM51.1512 3.25956C48.8408 3.02471 48.8557 11.555 49.1425 13.4685C50.3425 11.7671 52.427 3.71766 51.1512 3.25956ZM68.023 3.25956C65.7125 3.02471 65.7275 11.555 66.0144 13.4685C67.2143 11.7671 69.2989 3.71766 68.023 3.25956ZM84.7611 3.37825C82.4505 3.14339 82.4654 11.6737 82.7524 13.5873C83.9522 11.8858 86.0368 3.83631 84.7611 3.37825ZM101.231 2.76021C97.6313 3.40089 98.4696 14.0384 99.0163 15.9041C103.257 10.7424 103.344 2.56633 101.231 2.76021ZM114.722 16.0535C114.539 15.3753 113.624 15.0128 112.992 15.1021C111.185 15.3209 109.432 17.316 110.11 20.3535C110.262 21.03 110.64 21.6527 110.633 21.632C114.678 19.2268 115.022 17.3315 114.722 16.0535ZM38.4972 10.9756C37.9806 10.9757 37.4756 10.84 37.046 10.5857C36.6165 10.3314 36.2816 9.9699 36.0838 9.54691C35.886 9.12394 35.8343 8.65847 35.9351 8.20941C36.0357 7.76034 36.2845 7.34784 36.6498 7.02406C37.015 6.70029 37.4804 6.47979 37.987 6.39045C38.4937 6.30112 39.0189 6.34695 39.4962 6.52217C39.9735 6.69738 40.3814 6.9941 40.6684 7.3748C40.9553 7.75551 41.1085 8.20309 41.1085 8.66094C41.1085 8.96489 41.041 9.26588 40.9097 9.54669C40.7786 9.82752 40.5863 10.0827 40.3437 10.2976C40.1012 10.5126 39.8134 10.6831 39.4966 10.7994C39.1797 10.9157 38.8402 10.9756 38.4972 10.9756Z" fill="#0D0C22"/>
</svg>
