<svg width="66" height="14" viewBox="0 0 66 14" fill="none" xmlns="http://www.w3.org/2000/svg">
<path fill-rule="evenodd" clip-rule="evenodd" d="M59.6582 5.93601C52.4309 10.6573 41.9554 13.1763 32.9362 13.1763C20.2899 13.1763 8.90489 9.03078 0.291717 2.13592C-0.384992 1.59373 0.221337 0.854824 1.03339 1.27705C10.3287 6.07036 21.8219 8.95401 33.6942 8.95401C41.701 8.95401 50.5091 7.48579 58.6079 4.439C59.8314 3.97838 60.8546 5.14912 59.6582 5.93601Z" fill="#FF9900"/>
<path fill-rule="evenodd" clip-rule="evenodd" d="M62.6629 2.88926C61.7425 1.84327 56.5562 2.39505 54.2284 2.63976C53.5192 2.71653 53.4109 2.16954 54.0497 1.7761C58.1803 -0.800482 64.9583 -0.0567755 65.7486 0.80688C66.539 1.67534 65.5429 7.69695 61.6613 10.571C61.0658 11.0124 60.4974 10.7773 60.7627 10.192C61.6343 8.26312 63.5886 3.94004 62.6629 2.88926Z" fill="#FF9900"/>
</svg>
