<svg width="34" height="32" viewBox="0 0 34 32" fill="none" xmlns="http://www.w3.org/2000/svg">
<path d="M26.1274 10.392V6.63367C26.6878 6.40169 27.1623 6.03336 27.4956 5.57159C27.8289 5.10982 28.0074 4.57361 28.0101 4.02543V3.9377C28.0078 3.17162 27.6634 2.43751 27.0522 1.8958C26.441 1.3541 25.6127 1.04886 24.7483 1.0468H24.6493C23.785 1.04886 22.9567 1.3541 22.3455 1.8958C21.7342 2.43751 21.3899 3.17162 21.3875 3.9377V4.02543C21.3903 4.57361 21.5687 5.10982 21.902 5.57159C22.2353 6.03336 22.7099 6.40169 23.2703 6.63367V10.392C21.6591 10.6104 20.1415 11.2022 18.8714 12.1075L7.22742 4.07806C7.3103 3.81319 7.35465 3.54001 7.35939 3.26518C7.36026 2.62016 7.1453 1.98939 6.74169 1.45265C6.33808 0.91591 5.76396 0.497295 5.09191 0.249745C4.41987 0.00219482 3.6801 -0.063173 2.96614 0.0619078C2.25218 0.186989 1.5961 0.4969 1.08087 0.952452C0.565641 1.408 0.214403 1.98874 0.0715676 2.62121C-0.0712675 3.25369 0.000714929 3.9095 0.278418 4.50571C0.556121 5.10193 1.02707 5.61177 1.63171 5.97076C2.23635 6.32976 2.94752 6.52178 3.67529 6.52255C4.31455 6.52044 4.9419 6.36917 5.49424 6.08395L16.9424 13.9828C15.9113 15.3615 15.3733 16.9839 15.3988 18.6379C15.4243 20.2919 16.0121 21.9006 17.0854 23.2539L13.6014 26.3417C13.3218 26.2628 13.0305 26.2207 12.7371 26.2169C12.1389 26.2169 11.5542 26.3741 11.0569 26.6687C10.5595 26.9632 10.1719 27.3818 9.94301 27.8716C9.71411 28.3613 9.65423 28.9003 9.77092 29.4202C9.88761 29.9402 10.1756 30.4177 10.5986 30.7926C11.0215 31.1675 11.5604 31.4227 12.1471 31.5262C12.7337 31.6296 13.3418 31.5765 13.8944 31.3736C14.447 31.1708 14.9193 30.8272 15.2516 30.3864C15.5839 29.9456 15.7613 29.4274 15.7613 28.8973C15.7573 28.6372 15.7098 28.379 15.6206 28.1312L19.0671 25.0766C20.1922 25.8382 21.4987 26.3619 22.887 26.6078C24.2752 26.8537 25.7085 26.8151 27.0774 26.4952C28.4464 26.1753 29.7147 25.5823 30.7856 24.7617C31.8566 23.941 32.7018 22.9144 33.2568 21.7601C33.8118 20.6058 34.0618 19.3544 33.9879 18.1013C33.914 16.8483 33.518 15.6268 32.8302 14.5301C32.1424 13.4334 31.181 12.4905 30.0193 11.7733C28.8577 11.0561 27.5265 10.5837 26.1274 10.392ZM24.6999 22.7549C23.7568 22.7549 22.8349 22.507 22.0507 22.0426C21.2666 21.5782 20.6554 20.9182 20.2945 20.146C19.9335 19.3737 19.8391 18.524 20.0231 17.7042C20.2071 16.8844 20.6613 16.1313 21.3281 15.5403C21.995 14.9492 22.8447 14.5467 23.7696 14.3837C24.6946 14.2206 25.6534 14.3043 26.5247 14.6241C27.396 14.944 28.1408 15.4857 28.6647 16.1807C29.1887 16.8757 29.4683 17.6928 29.4683 18.5287C29.4683 19.6495 28.966 20.7245 28.0717 21.517C27.1774 22.3096 25.9646 22.7549 24.6999 22.7549Z" fill="#FF7A59"/>
</svg>
