<svg width="124" height="20" viewBox="0 0 124 20" fill="none" xmlns="http://www.w3.org/2000/svg">
<path fill-rule="evenodd" clip-rule="evenodd" d="M71.6756 3.61663V1.11943C71.6756 0.741505 71.9995 0.487958 72.3881 0.487958H85.0025C85.4073 0.487958 85.7312 0.746289 85.7312 1.11943V3.25783C85.7258 3.61663 85.3857 4.08545 84.7812 4.82695L78.2446 13.0983C80.6735 13.0457 83.2374 13.3662 85.4397 14.4665C85.9363 14.7153 86.0712 15.0788 86.109 15.4376V18.1023C86.109 18.4658 85.6556 18.8916 85.1806 18.6715C81.2997 16.868 76.1449 16.6719 71.8538 18.6907C71.4166 18.9012 70.9578 18.4802 70.9578 18.1166V15.5859C70.9578 15.1793 70.9632 14.4856 71.422 13.8685L78.9949 4.24332H72.4043C71.9995 4.24332 71.6756 3.98977 71.6756 3.61663Z" fill="black"/>
<path fill-rule="evenodd" clip-rule="evenodd" d="M25.6605 19.1978H21.8228C21.4558 19.1739 21.1643 18.9299 21.1373 18.619V1.16252C21.1373 0.8133 21.4666 0.535832 21.8768 0.535832H25.4554C25.8279 0.550174 26.1247 0.80373 26.1517 1.11947V3.40139H26.2219C27.1557 1.19601 28.9099 0.167472 31.2741 0.167472C33.6761 0.167472 35.1766 1.19601 36.2561 3.40139C37.1845 1.19601 39.295 0.167472 41.5567 0.167472C43.1652 0.167472 44.9248 0.755891 45.9989 2.07625C47.2134 3.5449 46.9651 5.67852 46.9651 7.54902L46.9597 18.5663C46.9597 18.9156 46.6305 19.1978 46.2202 19.1978H42.3879C42.0047 19.1739 41.697 18.9012 41.697 18.5663V9.31428C41.697 8.57756 41.7726 6.74054 41.589 6.04209C41.303 4.87004 40.4447 4.53995 39.3328 4.53995C38.4044 4.53995 37.4328 5.0901 37.0388 5.97034C36.6448 6.85057 36.6826 8.32401 36.6826 9.31428V18.5663C36.6826 18.9156 36.3533 19.1978 35.9431 19.1978H32.1107C31.7221 19.1739 31.4198 18.9012 31.4198 18.5663L31.4145 9.31428C31.4145 7.36723 31.7761 4.50168 29.0503 4.50168C26.2921 4.50168 26.4 7.29547 26.4 9.31428V18.5663C26.4 18.9156 26.0708 19.1978 25.6605 19.1978Z" fill="black"/>
<path fill-rule="evenodd" clip-rule="evenodd" d="M96.5911 0.167472C102.286 0.167472 105.368 4.50168 105.368 10.0127C105.368 15.3372 101.962 19.5614 96.5911 19.5614C90.9991 19.5614 87.9548 15.2272 87.9548 9.82615C87.9548 4.39165 91.0369 0.167472 96.5911 0.167472ZM96.6235 3.73147C93.7951 3.73147 93.617 7.14717 93.617 9.27601C93.617 11.4096 93.5792 15.9639 96.5911 15.9639C99.5652 15.9639 99.7056 12.2899 99.7056 10.051C99.7056 8.57756 99.6354 6.81709 99.1334 5.42019C98.7016 4.20508 97.8434 3.73147 96.6235 3.73147Z" fill="black"/>
<path fill-rule="evenodd" clip-rule="evenodd" d="M112.752 19.1978H108.93C108.547 19.1739 108.239 18.9012 108.239 18.5663L108.234 1.10511C108.266 0.784594 108.585 0.535832 108.974 0.535832H112.531C112.865 0.550174 113.14 0.751108 113.216 1.02379V3.6932H113.286C114.36 1.30604 115.866 0.167472 118.517 0.167472C120.238 0.167472 121.917 0.71762 122.997 2.22455C124.001 3.62144 124.001 5.97034 124.001 7.65905V18.6477C123.957 18.9538 123.639 19.1978 123.261 19.1978H119.413C119.062 19.1739 118.77 18.9443 118.732 18.6477V9.16598C118.732 7.2572 118.981 4.46341 116.331 4.46341C115.397 4.46341 114.538 5.01834 114.112 5.86031C113.572 6.92712 113.502 7.98914 113.502 9.16598V18.5663C113.497 18.9156 113.162 19.1978 112.752 19.1978Z" fill="black"/>
<path fill-rule="evenodd" clip-rule="evenodd" d="M61.6198 10.8594C61.6198 12.1846 61.6576 13.2897 60.9019 14.4665C60.292 15.4233 59.3204 16.0117 58.2463 16.0117C56.7727 16.0117 55.9091 15.0167 55.9091 13.548C55.9091 10.649 58.84 10.1227 61.6198 10.1227V10.8594ZM65.49 19.1499C65.2363 19.3509 64.8692 19.3652 64.5831 19.2313C63.3093 18.2936 63.0772 17.8583 62.3809 16.9637C60.2758 18.8677 58.7807 19.437 56.0548 19.437C52.8216 19.437 50.3117 17.6717 50.3117 14.1364C50.3117 11.3761 51.9958 9.49604 54.4032 8.57753C56.4867 7.76426 59.396 7.62075 61.6198 7.39591V6.95579C61.6198 6.14731 61.69 5.19053 61.1502 4.49208C60.686 3.86539 59.79 3.60706 58.9966 3.60706C57.5338 3.60706 56.233 4.27202 55.9145 5.64978C55.8497 5.95595 55.596 6.25734 55.2452 6.27169L51.5262 5.91768C51.2131 5.85549 50.8623 5.63065 50.954 5.20488C51.8069 1.20555 55.8875 0 59.5363 0C61.4039 0 63.8437 0.440119 65.3172 1.6935C67.1848 3.2387 67.0067 5.30056 67.0067 7.54421V12.8448C67.0067 14.4378 67.7516 15.1362 68.4533 15.9974C68.6962 16.3035 68.7501 16.6719 68.4371 16.9015C67.6544 17.4804 66.2618 18.5567 65.4953 19.1595L65.49 19.1499Z" fill="black"/>
<path fill-rule="evenodd" clip-rule="evenodd" d="M11.3081 10.8594C11.3081 12.1846 11.3459 13.2897 10.5902 14.4665C9.98027 15.4233 9.01409 16.0117 7.93456 16.0117C6.461 16.0117 5.60277 15.0166 5.60277 13.548C5.60277 10.6489 8.5337 10.1227 11.3081 10.1227V10.8594ZM15.1782 19.1499C14.9245 19.3509 14.5575 19.3652 14.2714 19.2313C12.9976 18.2936 12.7709 17.8583 12.0692 16.9637C9.96408 18.8677 8.47433 19.437 5.74311 19.437C2.51531 19.437 0 17.6717 0 14.1364C0 11.3761 1.68947 9.49603 4.09142 8.57752C6.17492 7.76426 9.08426 7.62075 11.3081 7.3959V6.95578C11.3081 6.1473 11.3783 5.19052 10.8439 4.49208C10.3743 3.86539 9.47829 3.60706 8.69023 3.60706C7.22747 3.60706 5.92123 4.27202 5.60277 5.64978C5.538 5.95595 5.28431 6.25734 4.93886 6.27169L1.21447 5.91768C0.901409 5.85549 0.555958 5.63064 0.642321 5.20488C1.50055 1.20554 5.57578 0 9.2246 0C11.0922 0 13.5319 0.440119 15.0055 1.6935C16.8731 3.2387 16.695 5.30055 16.695 7.5442V12.8448C16.695 14.4378 17.4398 15.1362 18.1415 15.9973C18.3898 16.3035 18.4438 16.6719 18.1307 16.9015C17.3481 17.4803 15.9555 18.5567 15.189 19.1595L15.1782 19.1499Z" fill="black"/>
</svg>
