<svg width="146" height="35" viewBox="0 0 146 35" fill="none" xmlns="http://www.w3.org/2000/svg">
<path d="M51.0374 28.9655V14.3138H51.3319L63.3652 28.9655H67.1519V7.44928H62.9445V22.0641H62.65L50.6167 7.44928H46.83V28.9655H51.0374ZM79.059 29.2976C84.6128 29.2976 88.0209 26.1237 88.0209 20.8093C88.0209 15.5317 84.6128 12.3209 79.059 12.3209C73.5472 12.3209 70.0972 15.5317 70.0972 20.8093C70.1392 26.1237 73.5052 29.2976 79.059 29.2976ZM79.059 26.1975C76.1138 26.1975 74.4308 24.2415 74.4308 20.8093C74.4308 17.4139 76.1138 15.421 79.059 15.421C82.0042 15.421 83.6872 17.4139 83.6872 20.8093C83.6872 24.2415 82.0042 26.1975 79.059 26.1975ZM91.8497 8.66717V12.7637H88.9045V15.7162H91.8497V24.6106C91.8497 27.7845 93.5326 29.0393 97.8242 29.0393C98.6237 29.0393 99.4231 28.9655 100.054 28.8548V25.9761C99.5493 26.013 99.2127 26.0499 98.6237 26.0499C96.8565 26.0499 96.0571 25.3487 96.0571 23.7248V15.7162H100.054V12.7637H96.0571V8.66717H91.8497ZM102.579 28.9655H106.786V12.653H102.579V28.9655ZM104.682 9.95888C106.071 9.95888 107.207 8.96242 107.207 7.74452C107.207 6.48972 106.071 5.49326 104.682 5.49326C103.294 5.49326 102.158 6.48972 102.158 7.74452C102.158 8.96242 103.294 9.95888 104.682 9.95888ZM118.315 29.2976C123.868 29.2976 127.276 26.1237 127.276 20.8093C127.276 15.5317 123.868 12.3209 118.315 12.3209C112.803 12.3209 109.353 15.5317 109.353 20.8093C109.353 26.1237 112.719 29.2976 118.315 29.2976ZM118.315 26.1975C115.369 26.1975 113.686 24.2415 113.686 20.8093C113.686 17.4139 115.369 15.421 118.315 15.421C121.218 15.421 122.943 17.4139 122.943 20.8093C122.901 24.2415 121.218 26.1975 118.315 26.1975ZM129.759 28.9655H133.966V19.4806C133.966 17.0817 135.565 15.5686 138.047 15.5686C140.614 15.5686 141.792 16.8234 141.792 19.2961V28.9655H146V18.4104C146 14.4983 143.728 12.3209 139.604 12.3209C136.827 12.3209 134.976 13.4281 134.092 15.2734H133.798V12.653H129.717C129.759 12.653 129.759 28.9655 129.759 28.9655Z" fill="black"/>
<path fill-rule="evenodd" clip-rule="evenodd" d="M6.48769 6.07215C7.71227 6.94772 8.15521 6.87859 10.448 6.74034L32.0476 5.58827C32.5166 5.58827 32.1258 5.17353 31.9695 5.12745L28.3739 2.84635C27.6964 2.38552 26.7585 1.83253 25.0128 1.97077L4.11669 3.33022C3.36109 3.39934 3.20476 3.74496 3.51742 3.99842L6.48769 6.07215ZM7.79044 10.5191V30.6112C7.79044 31.6942 8.38971 32.0859 9.77062 32.0168L33.5067 30.7956C34.8876 30.7264 35.0439 29.9891 35.0439 29.1136V9.15969C35.0439 8.28412 34.6531 7.80025 33.8194 7.86937L9.01502 9.15969C8.1031 9.22882 7.79044 9.64356 7.79044 10.5191ZM31.2139 11.6021C31.3702 12.2012 31.2139 12.8233 30.5364 12.8924L29.39 13.0998V27.9384C28.3999 28.3993 27.488 28.6758 26.7064 28.6758C25.4818 28.6758 25.1691 28.3301 24.2572 27.3163L16.7794 16.9246V26.9707L19.1504 27.4315C19.1504 27.4315 19.1504 28.6527 17.2484 28.6527L11.9853 28.9292C11.829 28.6527 11.9853 27.9845 12.5064 27.8463L13.8873 27.5007V14.2288L11.9853 14.0906C11.829 13.4915 12.2198 12.6159 13.288 12.5468L18.942 12.2012L26.7324 22.708V13.4224L24.7522 13.215C24.5959 12.4777 25.2212 11.9247 25.9768 11.8555L31.2139 11.6021ZM2.371 1.4869L24.1269 0.0813775C26.7845 -0.125995 27.488 0.0122537 29.1555 1.0952L36.0861 5.40394C37.2326 6.14127 37.6234 6.34864 37.6234 7.15509V30.8186C37.6234 32.2933 37.0241 33.1688 34.8876 33.3071L9.64034 34.6665C8.02494 34.7357 7.26934 34.5283 6.43558 33.5836L1.30275 27.708C0.390825 26.6251 0 25.8186 0 24.8739V3.83713C0 2.61593 0.625319 1.62515 2.371 1.4869Z" fill="black"/>
</svg>
