<svg width="129" height="27" viewBox="0 0 129 27" fill="none" xmlns="http://www.w3.org/2000/svg">
<path d="M13.9424 0V9.12354H4.4884V0H0V21.7788H4.4884V12.9515H13.9424V21.7788H18.4308V0H13.9424Z" fill="#33475B"/>
<path d="M32.7954 14.7383C32.7954 15.6111 32.4042 16.4482 31.7079 17.0654C31.0115 17.6826 30.067 18.0293 29.0822 18.0293C28.0974 18.0293 27.1529 17.6826 26.4566 17.0654C25.7602 16.4482 25.369 15.6111 25.369 14.7383V5.41011H21.1115V14.7383C21.1115 16.6101 21.9505 18.4052 23.4438 19.7287C24.9372 21.0523 26.9626 21.7958 29.0745 21.7958C31.1864 21.7958 33.2119 21.0523 34.7052 19.7287C36.1986 18.4052 37.0375 16.6101 37.0375 14.7383V5.41011H32.7954V14.7383Z" fill="#33475B"/>
<path d="M64.3406 6.37149C64.3406 4.45946 65.7678 3.85331 67.3314 3.85331C68.5915 3.85331 70.2562 4.7031 71.3448 5.73415L74.1333 2.82225C72.7412 1.15386 69.9176 2.01061e-05 67.6063 2.01061e-05C62.9881 2.01061e-05 59.6477 2.39736 59.6477 6.37149C59.6477 13.7448 69.8164 11.4059 69.8164 15.5321C69.8164 16.8048 68.4222 17.9294 66.8256 17.9294C64.3076 17.9294 63.4917 16.8379 62.335 15.6841L59.2409 18.5356C61.2201 20.6893 63.6611 21.7827 66.5859 21.7827C70.9731 21.7827 74.5027 19.3561 74.5027 15.5632C74.5027 7.3772 64.334 9.92072 64.334 6.37149" fill="#33475B"/>
<path d="M127.249 18.2995C124.733 18.2995 124.018 17.3347 124.018 15.8573V9.3182H127.928V6.0048H124.018V1.63307L119.701 3.35019V16.6701C119.701 20.077 122.353 21.7941 125.991 21.7941C126.561 21.8033 127.131 21.7629 127.693 21.6733L128.746 18.2371C128.271 18.2663 127.726 18.2956 127.249 18.2956" fill="#33475B"/>
<path d="M49.0018 5.5201C46.8928 5.5201 45.4216 6.06193 43.9988 7.29959V0.130952H39.7347V13.4177C39.7347 18.3917 43.7921 21.7986 48.3509 21.7986C53.4088 21.7986 57.8576 18.3313 57.8576 13.6613C57.8576 9.04984 53.7629 5.52205 49.0018 5.52205V5.5201ZM48.9754 17.996C48.0185 17.996 47.0831 17.7445 46.2875 17.2734C45.4919 16.8022 44.8718 16.1325 44.5056 15.349C44.1394 14.5655 44.0436 13.7033 44.2303 12.8716C44.417 12.0398 44.8778 11.2757 45.5544 10.6761C46.231 10.0764 47.0931 9.668 48.0315 9.50255C48.97 9.3371 49.9428 9.42202 50.8268 9.74656C51.7109 10.0711 52.4665 10.6207 52.9981 11.3258C53.5297 12.031 53.8135 12.86 53.8135 13.7081C53.8135 14.8453 53.3037 15.936 52.3964 16.7401C51.4891 17.5443 50.2585 17.996 48.9754 17.996Z" fill="#33475B"/>
<path d="M95.3018 13.4617C95.3018 8.78392 90.8618 5.32434 85.795 5.32434C81.2363 5.32434 77.1789 8.7313 77.1789 13.7053V26.9998H81.443V19.8214C82.8636 21.0571 84.337 21.6009 86.4438 21.6009C91.2049 21.6009 95.2996 18.0751 95.2996 13.4617H95.3018ZM91.2642 13.4149C91.2642 14.263 90.9805 15.092 90.4489 15.7971C89.9173 16.5023 89.1617 17.0519 88.2776 17.3764C87.3936 17.701 86.4208 17.7859 85.4823 17.6204C84.5438 17.455 83.6818 17.0466 83.0052 16.4469C82.3285 15.8472 81.8678 15.0832 81.6811 14.2514C81.4944 13.4196 81.5902 12.5575 81.9564 11.774C82.3226 10.9904 82.9427 10.3208 83.7383 9.8496C84.5339 9.37844 85.4693 9.12696 86.4262 9.12696C87.7093 9.12696 88.9399 9.57872 89.8472 10.3829C90.7545 11.187 91.2642 12.2777 91.2642 13.4149Z" fill="#33475B"/>
</svg>
